<svg xmlns="http://www.w3.org/2000/svg" width="196.579" height="51.156" viewBox="118 44.422 196.579 51.156"><g data-name="Gruppe 1683"><path d="M155.61 67.01h7.522v7.522h-7.522V67.01z" fill="#fff" fill-rule="evenodd" data-name="Rechteck 1418"/><path d="M133.044 44.444h-7.522v7.522h15.044v-7.522h-7.522Z" fill="#fff" fill-rule="evenodd" data-name="Pfad 850"/><path d="M140.566 51.966V67.01h-15.044V51.966H118v37.61h7.522V74.532h15.044v15.044h7.522v-37.61h-7.522Z" fill="#fff" fill-rule="evenodd" data-name="Pfad 851"/><path d="M178.176 44.444h-15.044v7.522h7.522v30.088h-7.522v7.522H185.698v-7.522h-7.522V51.966h7.522v-7.522h-7.522Z" fill="#fff" fill-rule="evenodd" data-name="Pfad 852"/><path d="M193.294 72.844h2.33v16.661h-2.33v-16.66z" fill="#fff" fill-rule="evenodd" data-name="Rechteck 1419"/><path d="m202.09 47.332 3.34 8.4h-6.705l3.365-8.4Zm-1.063-2.91-7.768 17.915h2.784l1.796-4.403h8.502l1.822 4.403h2.834l-7.692-17.915h-2.278Z" fill="#fff" fill-rule="evenodd" data-name="Pfad 853"/><path d="m217.23 56.036-4.377-5.693h2.935l2.935 4.124 2.96-4.124h2.784l-4.327 5.668 4.833 6.326h-2.96l-3.34-4.681-3.391 4.68h-2.859l4.807-6.3Z" fill="#fff" fill-rule="evenodd" data-name="Pfad 854"/><g data-name="Gruppe 1682"><g data-name="Gruppe 1681" transform="translate(118 44.422)" clip-path="url(&quot;#a&quot;)"><path d="M119.77 12.626h-9.514c.076 2.05 1.796 3.644 3.897 3.644 1.62 0 2.808-.81 3.491-1.822l1.67 1.341c-1.29 1.67-3.036 2.454-5.161 2.454-3.644 0-6.326-2.53-6.326-6.3 0-3.745 2.682-6.351 6.2-6.351 3.541 0 5.768 2.404 5.768 6.224 0 .253 0 .532-.025.81m-2.379-1.771c-.05-1.898-1.163-3.39-3.365-3.39-2.05 0-3.618 1.518-3.77 3.39h7.135Z" fill="#fff" fill-rule="evenodd" data-name="Pfad 855"/><path d="M129.151 8.957c-.532-.86-1.569-1.493-2.783-1.493-1.089 0-2.227.43-2.227 1.57 0 1.011.91 1.39 2.733 1.796 2.277.506 4.023 1.442 4.023 3.542 0 2.834-2.353 3.871-4.783 3.871-1.821 0-3.694-.708-4.832-2.15l1.695-1.443c.632.936 1.847 1.67 3.188 1.67 1.19 0 2.379-.43 2.379-1.746 0-1.113-1.089-1.518-3.138-1.999-1.594-.379-3.492-1.062-3.492-3.314 0-2.581 2.252-3.67 4.53-3.67 1.695 0 3.491.684 4.352 1.975l-1.645 1.391Z" fill="#fff" fill-rule="evenodd" data-name="Pfad 856"/><path d="M140.793 8.957c-.532-.86-1.57-1.493-2.784-1.493-1.088 0-2.226.43-2.226 1.57 0 1.011.91 1.39 2.732 1.796 2.278.506 4.023 1.442 4.023 3.542 0 2.834-2.353 3.871-4.782 3.871-1.821 0-3.694-.708-4.833-2.15l1.696-1.443c.632.936 1.847 1.67 3.188 1.67 1.189 0 2.378-.43 2.378-1.746 0-1.113-1.088-1.518-3.137-1.999-1.594-.379-3.492-1.062-3.492-3.314 0-2.581 2.252-3.67 4.53-3.67 1.695 0 3.491.684 4.351 1.975l-1.644 1.391Z" fill="#fff" fill-rule="evenodd" data-name="Pfad 857"/><path d="M82.27 33.09c.052.606.102 1.467.102 1.973h.076c.582-1.29 2.176-2.303 3.897-2.303 3.086 0 4.478 2.202 4.478 4.884v7.439h-2.378v-6.655c0-1.948-.532-3.669-2.733-3.669-1.873 0-3.213 1.569-3.213 3.948v6.376H80.12V35.67c0-.632-.025-1.796-.101-2.58h2.252Z" fill="#fff" fill-rule="evenodd" data-name="Pfad 858"/><path d="M100.611 35.038h-3.188v6.25c0 1.442.506 2.023 1.695 2.023.43 0 .987-.1 1.392-.303l.076 1.948c-.557.203-1.29.33-2.024.33-2.252 0-3.492-1.266-3.492-3.745v-6.503h-2.303v-1.949h2.303v-3.44h2.353v3.44h3.188v1.949Z" fill="#fff" fill-rule="evenodd" data-name="Pfad 859"/><path d="M113.815 39.794H104.3c.076 2.05 1.796 3.644 3.896 3.644 1.62 0 2.809-.81 3.492-1.822l1.67 1.341c-1.29 1.67-3.036 2.455-5.162 2.455-3.643 0-6.325-2.53-6.325-6.3 0-3.745 2.682-6.352 6.199-6.352 3.542 0 5.769 2.404 5.769 6.225 0 .253 0 .531-.025.81m-2.379-1.771c-.05-1.898-1.164-3.391-3.365-3.391-2.05 0-3.618 1.518-3.77 3.39h7.135Z" fill="#fff" fill-rule="evenodd" data-name="Pfad 860"/><path d="M116.126 25.954h2.378v19.129h-2.378v-19.13z" fill="#fff" fill-rule="evenodd" data-name="Rechteck 1420"/><path d="M121.106 25.954h2.378v19.129h-2.378v-19.13z" fill="#fff" fill-rule="evenodd" data-name="Rechteck 1421"/><path d="M127.421 30.28c-.86 0-1.568-.682-1.568-1.517 0-.86.708-1.544 1.568-1.544.861 0 1.595.658 1.595 1.544 0 .86-.734 1.518-1.595 1.518m1.19 14.802h-2.379V33.089h2.379v11.994Z" fill="#fff" fill-rule="evenodd" data-name="Pfad 861"/><path d="M132.53 47.132c1.038 1.164 2.733 1.949 4.378 1.949 3.163 0 4.226-1.949 4.226-4.429V43.11h-.05c-.886 1.341-2.531 2.075-4.226 2.075-3.67 0-6.048-2.733-6.048-6.174 0-3.44 2.353-6.25 6.022-6.25 1.72 0 3.416.76 4.327 2.252h.05V33.09h2.303v11.386c0 3.492-1.644 6.68-6.63 6.68-2.074 0-4.377-.81-5.87-2.176l1.519-1.847Zm4.707-3.947c2.454 0 4.074-1.847 4.074-4.226 0-2.277-1.645-4.225-4.074-4.225-2.505 0-3.972 1.923-3.972 4.225 0 2.202 1.467 4.226 3.972 4.226" fill="#fff" fill-rule="evenodd" data-name="Pfad 862"/><path d="M157.544 39.794h-9.513c.076 2.05 1.796 3.644 3.896 3.644 1.62 0 2.809-.81 3.492-1.822l1.67 1.341c-1.29 1.67-3.036 2.455-5.162 2.455-3.643 0-6.325-2.53-6.325-6.3 0-3.745 2.682-6.352 6.199-6.352 3.542 0 5.769 2.404 5.769 6.225 0 .253 0 .531-.026.81m-2.378-1.771c-.05-1.898-1.164-3.391-3.365-3.391-2.05 0-3.618 1.518-3.77 3.39h7.135Z" fill="#fff" fill-rule="evenodd" data-name="Pfad 863"/><path d="M162.156 33.09c.05.606.1 1.467.1 1.973h.077c.582-1.29 2.176-2.303 3.896-2.303 3.087 0 4.48 2.202 4.48 4.884v7.439h-2.38v-6.655c0-1.948-.53-3.669-2.732-3.669-1.873 0-3.213 1.569-3.213 3.948v6.376h-2.379V35.67c0-.632-.025-1.796-.101-2.58h2.252Z" fill="#fff" fill-rule="evenodd" data-name="Pfad 864"/><path d="M181.767 36.126c-.507-.785-1.62-1.367-2.758-1.367-2.48 0-3.922 2.024-3.922 4.327 0 2.277 1.442 4.327 3.947 4.327 1.215 0 2.252-.506 2.885-1.316l1.594 1.442c-1.012 1.164-2.556 1.873-4.479 1.873-3.694 0-6.452-2.505-6.452-6.326 0-3.77 2.733-6.326 6.401-6.326 1.696 0 3.518.684 4.504 1.974l-1.72 1.392Z" fill="#fff" fill-rule="evenodd" data-name="Pfad 865"/><path d="M196.554 39.794h-9.514c.076 2.05 1.797 3.644 3.897 3.644 1.62 0 2.808-.81 3.491-1.822l1.67 1.341c-1.29 1.67-3.036 2.455-5.161 2.455-3.644 0-6.326-2.53-6.326-6.3 0-3.745 2.682-6.352 6.2-6.352 3.542 0 5.768 2.404 5.768 6.225 0 .253 0 .531-.025.81m-2.378-1.771c-.051-1.898-1.164-3.391-3.366-3.391-2.05 0-3.618 1.518-3.77 3.39h7.136Z" fill="#fff" fill-rule="evenodd" data-name="Pfad 866"/></g></g></g><defs><clipPath id="a"><path d="M0 0h196.58v51.156H0V0z" data-name="Rechteck 1422"/></clipPath></defs></svg>