<svg xmlns="http://www.w3.org/2000/svg" width="205.89" height="33.396" viewBox="0 0 205.89 33.396">
  <g id="Group_1568" data-name="Group 1568" transform="translate(0 0)">
    <path id="Path_809" data-name="Path 809" d="M204.428,29.791H165.477V24.226h33.387V21.443H165.477V7.532h38.951V13.1H171.041V15.88h33.387Z" transform="translate(-43.053 -1.96)" fill="#fff"/>
    <path id="Path_810" data-name="Path 810" d="M225.647,7.532V21.443h33.386v2.784H225.647v5.564H264.6V15.879H231.211V13.1H264.6V7.532Z" transform="translate(-58.708 -1.96)" fill="#fff"/>
    <path id="Path_811" data-name="Path 811" d="M5.563,13.1H33.386v2.782H5.563ZM0,7.532V29.791H5.563V21.443H33.387v8.348H38.95V7.532Z" transform="translate(0 -1.96)" fill="#fff"/>
    <path id="Path_812" data-name="Path 812" d="M144.26,29.791H105.309V7.532H144.26V13.1H110.873V15.88H144.26v5.563H110.873v2.784H144.26Z" transform="translate(-27.399 -1.96)" fill="#fff"/>
    <path id="Path_813" data-name="Path 813" d="M84.517,0,71.754,12.763,58.991,0h-7.87l16.7,16.7-16.7,16.7h7.87L71.754,20.632,84.517,33.4h7.869l-16.7-16.7L92.386,0Z" transform="translate(-13.301)" fill="#fff"/>
  </g>
</svg>
