<svg xmlns="http://www.w3.org/2000/svg" width="226" height="194" viewBox="0 0 226 194">
  <g id="Path_847" data-name="Path 847" fill="#48199f" stroke-linecap="round">
    <path d="M 129 193 L 97 193 C 90.48588562011719 193 83.97611999511719 192.3437957763672 77.65158843994141 191.0496215820312 C 71.48829650878906 189.7884063720703 65.42591094970703 187.9065246582031 59.63276290893555 185.4562683105469 C 53.94458770751953 183.0503540039062 48.4582633972168 180.0724639892578 43.32617568969727 176.6053009033203 C 38.24261856079102 173.1709136962891 33.46220397949219 169.2266998291016 29.11776542663574 164.8822326660156 C 24.77329444885254 160.5377960205078 20.82908821105957 155.7573852539062 17.39470672607422 150.673828125 C 13.92752933502197 145.5417327880859 10.94964694976807 140.0554046630859 8.543735504150391 134.3672332763672 C 6.093470573425293 128.5740814208984 4.211588382720947 122.5117034912109 2.950382471084595 116.3484115600586 C 1.656205892562866 110.0238800048828 1 103.5141143798828 1 97 C 1 90.48588562011719 1.656205892562866 83.97611999511719 2.950382471084595 77.65158843994141 C 4.211588382720947 71.48829650878906 6.093470573425293 65.42591094970703 8.543735504150391 59.63276290893555 C 10.94964694976807 53.94458770751953 13.92752933502197 48.4582633972168 17.39470672607422 43.32617568969727 C 20.82908821105957 38.24261856079102 24.77329444885254 33.46220397949219 29.11776542663574 29.11776542663574 C 33.46220397949219 24.77329444885254 38.24261856079102 20.82908821105957 43.32617568969727 17.39470672607422 C 48.4582633972168 13.92752933502197 53.94458770751953 10.94964694976807 59.63276290893555 8.543735504150391 C 65.42591094970703 6.093470573425293 71.48829650878906 4.211588382720947 77.65158843994141 2.950382471084595 C 83.97611999511719 1.656205892562866 90.48588562011719 1 97 1 L 129 1 C 135.5141143798828 1 142.0238800048828 1.656205892562866 148.3484191894531 2.950382471084595 C 154.5117034912109 4.211588382720947 160.5740814208984 6.093470573425293 166.3672332763672 8.543735504150391 C 172.0554046630859 10.94964694976807 177.5417327880859 13.92752933502197 182.673828125 17.39470672607422 C 187.7573852539062 20.82908821105957 192.5377960205078 24.77329444885254 196.8822326660156 29.11776542663574 C 201.2266998291016 33.46220397949219 205.1709136962891 38.24261856079102 208.6053009033203 43.32617568969727 C 212.0724639892578 48.4582633972168 215.0503540039062 53.94458770751953 217.4562683105469 59.63276290893555 C 219.9065246582031 65.42591094970703 221.7884063720703 71.48829650878906 223.0496215820312 77.65158843994141 C 224.3437957763672 83.97611999511719 225 90.48588562011719 225 97 C 225 103.5141143798828 224.3437957763672 110.0238800048828 223.0496215820312 116.3484115600586 C 221.7884063720703 122.5117034912109 219.9065246582031 128.5740814208984 217.4562683105469 134.3672332763672 C 215.0503540039062 140.0554046630859 212.0724639892578 145.5417327880859 208.6053009033203 150.673828125 C 205.1709136962891 155.7573852539062 201.2266998291016 160.5377960205078 196.8822326660156 164.8822326660156 C 192.5377960205078 169.2266998291016 187.7573852539062 173.1709136962891 182.673828125 176.6053009033203 C 177.5417327880859 180.0724639892578 172.0554046630859 183.0503540039062 166.3672332763672 185.4562683105469 C 160.5740814208984 187.9065246582031 154.5117034912109 189.7884063720703 148.3484191894531 191.0496215820312 C 142.0238800048828 192.3437957763672 135.5141143798828 193 129 193 Z" stroke="none"/>
    <path d="M 97 2 C 90.55305480957031 2 84.11076354980469 2.649383544921875 77.85206604003906 3.930084228515625 C 71.75344848632812 5.178054809570312 65.75465393066406 7.040176391601562 60.02232360839844 9.464767456054688 C 54.39361572265625 11.84550476074219 48.96455383300781 14.79229736328125 43.88600158691406 18.22332763671875 C 38.85514831542969 21.62208557128906 34.12429809570312 25.52540588378906 29.82485961914062 29.82485961914062 C 25.52540588378906 34.12429809570312 21.62208557128906 38.85514831542969 18.22332763671875 43.88600158691406 C 14.79229736328125 48.96455383300781 11.84550476074219 54.39361572265625 9.464767456054688 60.02232360839844 C 7.040176391601562 65.75465393066406 5.178054809570312 71.75344085693359 3.930084228515625 77.85205841064453 C 2.649383544921875 84.11076354980469 2 90.55306243896484 2 97 C 2 103.4469375610352 2.649383544921875 109.8892364501953 3.930084228515625 116.1479415893555 C 5.178054809570312 122.2465591430664 7.040176391601562 128.245361328125 9.464767456054688 133.9776763916016 C 11.84550476074219 139.6063842773438 14.79229736328125 145.0354461669922 18.22332763671875 150.1139984130859 C 21.62208557128906 155.1448516845703 25.52540588378906 159.8757019042969 29.82485961914062 164.1751403808594 C 34.12429809570312 168.4745941162109 38.85514831542969 172.3779144287109 43.88600158691406 175.7766723632812 C 48.96455383300781 179.2077026367188 54.39361572265625 182.1544952392578 60.02232360839844 184.5352325439453 C 65.75465393066406 186.9598236083984 71.75344848632812 188.8219451904297 77.85206604003906 190.0699157714844 C 84.11076354980469 191.3506164550781 90.55305480957031 192 97 192 L 129 192 C 135.4469299316406 192 141.8892364501953 191.3506164550781 148.14794921875 190.0699157714844 C 154.2465515136719 188.8219451904297 160.245361328125 186.9598236083984 165.9776763916016 184.5352325439453 C 171.6063842773438 182.1544952392578 177.0354461669922 179.2077026367188 182.1139984130859 175.7766723632812 C 187.1448516845703 172.3779144287109 191.8757019042969 168.4745941162109 196.1751403808594 164.1751403808594 C 200.4745941162109 159.8757019042969 204.3779144287109 155.1448516845703 207.7766723632812 150.1139984130859 C 211.2077026367188 145.0354461669922 214.1544952392578 139.6063842773438 216.5352325439453 133.9776763916016 C 218.9598236083984 128.245361328125 220.8219451904297 122.2465591430664 222.0699157714844 116.1479415893555 C 223.3506164550781 109.8892364501953 224 103.4469375610352 224 97 C 224 90.55306243896484 223.3506164550781 84.11076354980469 222.0699157714844 77.85205841064453 C 220.8219451904297 71.75344085693359 218.9598236083984 65.75465393066406 216.5352325439453 60.02232360839844 C 214.1544952392578 54.39361572265625 211.2077026367188 48.96455383300781 207.7766723632812 43.88600158691406 C 204.3779144287109 38.85514831542969 200.4745941162109 34.12429809570312 196.1751403808594 29.82485961914062 C 191.8757019042969 25.52540588378906 187.1448516845703 21.62208557128906 182.1139984130859 18.22332763671875 C 177.0354461669922 14.79229736328125 171.6063842773438 11.84550476074219 165.9776763916016 9.464767456054688 C 160.245361328125 7.040176391601562 154.2465515136719 5.178054809570312 148.14794921875 3.930084228515625 C 141.8892364501953 2.649383544921875 135.4469299316406 2 129 2 L 97 2 M 97 0 L 129 0 C 182.5716247558594 0 226 43.42837524414062 226 97 C 226 150.5716247558594 182.5716247558594 194 129 194 L 97 194 C 43.42837524414062 194 0 150.5716247558594 0 97 C 0 43.42837524414062 43.42837524414062 0 97 0 Z" stroke="none" fill="#48199f"/>
  </g>
</svg>
