<svg id="Group_1599" data-name="Group 1599" xmlns="http://www.w3.org/2000/svg" xmlns:xlink="http://www.w3.org/1999/xlink" width="102.787" height="123.01" viewBox="0 0 102.787 123.01">
  <defs>
    <clipPath id="clip-path">
      <rect id="Rectangle_1385" data-name="Rectangle 1385" width="102.787" height="123.01" fill="none" stroke="#fb8034" stroke-width="2"/>
    </clipPath>
  </defs>
  <g id="Group_1598" data-name="Group 1598" transform="translate(0 0)" clip-path="url(#clip-path)">
    <path id="Path_834" data-name="Path 834" d="M29.882,49.431A24.465,24.465,0,1,0,5.419,24.968,24.462,24.462,0,0,0,29.882,49.431Z" transform="translate(21.514 1.986)" fill="none" stroke="#fb8034" stroke-miterlimit="10" stroke-width="2"/>
    <path id="Path_835" data-name="Path 835" d="M18.77,72.134V44.321h6.347V72.134H73.461l0-27.813h6.342l0,.065V72.134h18.5V25.255a8.228,8.228,0,0,0-2.709-6.024l-.025-.025a6.6,6.6,0,0,0-1.1-.86,9.335,9.335,0,0,0-1.844-.959c-11.59-5.025-43.041-5.2-43.354-5.2-28.33,0-39.617,3.444-43.817,5.5-.124.055-.239.114-.348.174a8.334,8.334,0,0,0-.969.572l-.408.313A8.27,8.27,0,0,0,.5,25.255V72.134Z" transform="translate(1.985 48.393)" fill="none" stroke="#fb8034" stroke-miterlimit="10" stroke-width="2"/>
  </g>
</svg>
